<mxfile host="app.diagrams.net" modified="2022-03-15T03:58:10.138Z" agent="5.0 (Windows)" etag="O2F8CRnU6_ImFrqP0A0F" version="17.1.2" type="github">
  <diagram id="Q0McfdbR_vOQXKcCNgqP" name="Page-1">
    <mxGraphModel dx="806" dy="508" grid="1" gridSize="10" guides="1" tooltips="1" connect="1" arrows="1" fold="1" page="1" pageScale="1" pageWidth="850" pageHeight="1100" math="0" shadow="0">
      <root>
        <mxCell id="0" />
        <mxCell id="1" parent="0" />
        <mxCell id="FhGaNfptb9aEcFmK7woA-28" value="" style="rounded=1;whiteSpace=wrap;html=1;absoluteArcSize=1;arcSize=14;strokeWidth=2;" parent="1" vertex="1">
          <mxGeometry x="330" y="580" width="120" height="60" as="geometry" />
        </mxCell>
        <mxCell id="FhGaNfptb9aEcFmK7woA-18" value="" style="shape=parallelogram;perimeter=parallelogramPerimeter;whiteSpace=wrap;html=1;fixedSize=1;strokeWidth=2;" parent="1" vertex="1">
          <mxGeometry x="185" y="605" width="130" height="50" as="geometry" />
        </mxCell>
        <mxCell id="FhGaNfptb9aEcFmK7woA-9" value="" style="strokeWidth=2;html=1;shape=mxgraph.flowchart.decision;whiteSpace=wrap;" parent="1" vertex="1">
          <mxGeometry x="200" y="480" width="100" height="100" as="geometry" />
        </mxCell>
        <mxCell id="_fdn4rMZbtFpZdUaw8Mi-1" value="" style="strokeWidth=2;html=1;shape=mxgraph.flowchart.terminator;whiteSpace=wrap;" parent="1" vertex="1">
          <mxGeometry x="50" y="240" width="100" height="50" as="geometry" />
        </mxCell>
        <mxCell id="_fdn4rMZbtFpZdUaw8Mi-2" value="Car Parked" style="text;html=1;strokeColor=none;fillColor=none;align=center;verticalAlign=middle;whiteSpace=wrap;rounded=0;" parent="1" vertex="1">
          <mxGeometry x="65" y="250" width="70" height="30" as="geometry" />
        </mxCell>
        <mxCell id="_fdn4rMZbtFpZdUaw8Mi-4" value="" style="rounded=1;whiteSpace=wrap;html=1;absoluteArcSize=1;arcSize=14;strokeWidth=2;" parent="1" vertex="1">
          <mxGeometry x="40" y="620" width="120" height="60" as="geometry" />
        </mxCell>
        <mxCell id="_fdn4rMZbtFpZdUaw8Mi-5" value="Tax = Hours*10,000" style="text;html=1;strokeColor=none;fillColor=none;align=center;verticalAlign=middle;whiteSpace=wrap;rounded=0;" parent="1" vertex="1">
          <mxGeometry x="40" y="635" width="120" height="30" as="geometry" />
        </mxCell>
        <mxCell id="_fdn4rMZbtFpZdUaw8Mi-7" value="" style="shape=parallelogram;perimeter=parallelogramPerimeter;whiteSpace=wrap;html=1;fixedSize=1;strokeWidth=2;" parent="1" vertex="1">
          <mxGeometry x="40" y="320" width="120" height="50" as="geometry" />
        </mxCell>
        <mxCell id="_fdn4rMZbtFpZdUaw8Mi-9" value="&lt;div&gt;Print &quot;Hours&quot;&lt;br&gt;&lt;/div&gt;&lt;div&gt;Input Hours&lt;/div&gt;" style="text;html=1;strokeColor=none;fillColor=none;align=center;verticalAlign=middle;whiteSpace=wrap;rounded=0;" parent="1" vertex="1">
          <mxGeometry x="55" y="330" width="90" height="30" as="geometry" />
        </mxCell>
        <mxCell id="_fdn4rMZbtFpZdUaw8Mi-10" value="" style="endArrow=classic;html=1;rounded=0;exitX=0.5;exitY=1;exitDx=0;exitDy=0;entryX=0.5;entryY=0;entryDx=0;entryDy=0;entryPerimeter=0;" parent="1" source="_fdn4rMZbtFpZdUaw8Mi-7" target="_fdn4rMZbtFpZdUaw8Mi-11" edge="1">
          <mxGeometry width="50" height="50" relative="1" as="geometry">
            <mxPoint x="370" y="340" as="sourcePoint" />
            <mxPoint x="220" y="380" as="targetPoint" />
          </mxGeometry>
        </mxCell>
        <mxCell id="_fdn4rMZbtFpZdUaw8Mi-11" value="" style="strokeWidth=2;html=1;shape=mxgraph.flowchart.decision;whiteSpace=wrap;" parent="1" vertex="1">
          <mxGeometry x="50" y="400" width="100" height="100" as="geometry" />
        </mxCell>
        <mxCell id="_fdn4rMZbtFpZdUaw8Mi-12" value="If&amp;nbsp; Hours&amp;lt;=2" style="text;html=1;strokeColor=none;fillColor=none;align=center;verticalAlign=middle;whiteSpace=wrap;rounded=0;" parent="1" vertex="1">
          <mxGeometry x="65" y="435" width="70" height="30" as="geometry" />
        </mxCell>
        <mxCell id="_fdn4rMZbtFpZdUaw8Mi-15" value="" style="shape=parallelogram;perimeter=parallelogramPerimeter;whiteSpace=wrap;html=1;fixedSize=1;strokeWidth=2;" parent="1" vertex="1">
          <mxGeometry x="40" y="710" width="120" height="50" as="geometry" />
        </mxCell>
        <mxCell id="_fdn4rMZbtFpZdUaw8Mi-16" value="Charge &quot;Rp10,000&quot;" style="text;html=1;strokeColor=none;fillColor=none;align=center;verticalAlign=middle;whiteSpace=wrap;rounded=0;" parent="1" vertex="1">
          <mxGeometry x="70" y="720" width="60" height="30" as="geometry" />
        </mxCell>
        <mxCell id="FhGaNfptb9aEcFmK7woA-1" value="" style="endArrow=classic;html=1;rounded=0;exitX=0.5;exitY=1;exitDx=0;exitDy=0;entryX=0.5;entryY=0;entryDx=0;entryDy=0;" parent="1" source="_fdn4rMZbtFpZdUaw8Mi-4" target="_fdn4rMZbtFpZdUaw8Mi-15" edge="1">
          <mxGeometry width="50" height="50" relative="1" as="geometry">
            <mxPoint x="370" y="700" as="sourcePoint" />
            <mxPoint x="220" y="690" as="targetPoint" />
          </mxGeometry>
        </mxCell>
        <mxCell id="FhGaNfptb9aEcFmK7woA-2" value="Yes" style="text;html=1;strokeColor=none;fillColor=none;align=center;verticalAlign=middle;whiteSpace=wrap;rounded=0;" parent="1" vertex="1">
          <mxGeometry x="100" y="500" width="40" height="30" as="geometry" />
        </mxCell>
        <mxCell id="FhGaNfptb9aEcFmK7woA-3" value="" style="rounded=1;whiteSpace=wrap;html=1;absoluteArcSize=1;arcSize=14;strokeWidth=2;" parent="1" vertex="1">
          <mxGeometry x="40" y="530" width="120" height="60" as="geometry" />
        </mxCell>
        <mxCell id="FhGaNfptb9aEcFmK7woA-4" value="" style="endArrow=classic;html=1;rounded=0;exitX=0.5;exitY=1;exitDx=0;exitDy=0;exitPerimeter=0;entryX=0.5;entryY=0;entryDx=0;entryDy=0;" parent="1" source="_fdn4rMZbtFpZdUaw8Mi-11" target="FhGaNfptb9aEcFmK7woA-3" edge="1">
          <mxGeometry width="50" height="50" relative="1" as="geometry">
            <mxPoint x="370" y="520" as="sourcePoint" />
            <mxPoint x="420" y="470" as="targetPoint" />
          </mxGeometry>
        </mxCell>
        <mxCell id="FhGaNfptb9aEcFmK7woA-5" value="Hours = Integer" style="text;html=1;strokeColor=none;fillColor=none;align=center;verticalAlign=middle;whiteSpace=wrap;rounded=0;" parent="1" vertex="1">
          <mxGeometry x="52.5" y="545" width="95" height="30" as="geometry" />
        </mxCell>
        <mxCell id="FhGaNfptb9aEcFmK7woA-6" value="" style="endArrow=classic;html=1;rounded=0;exitX=0.5;exitY=1;exitDx=0;exitDy=0;entryX=0.5;entryY=0;entryDx=0;entryDy=0;" parent="1" source="FhGaNfptb9aEcFmK7woA-3" target="_fdn4rMZbtFpZdUaw8Mi-4" edge="1">
          <mxGeometry width="50" height="50" relative="1" as="geometry">
            <mxPoint x="370" y="640" as="sourcePoint" />
            <mxPoint x="200" y="600" as="targetPoint" />
          </mxGeometry>
        </mxCell>
        <mxCell id="FhGaNfptb9aEcFmK7woA-7" value="" style="endArrow=classic;html=1;rounded=0;exitX=1;exitY=0.5;exitDx=0;exitDy=0;exitPerimeter=0;entryX=0.5;entryY=0;entryDx=0;entryDy=0;entryPerimeter=0;" parent="1" source="_fdn4rMZbtFpZdUaw8Mi-11" target="FhGaNfptb9aEcFmK7woA-9" edge="1">
          <mxGeometry width="50" height="50" relative="1" as="geometry">
            <mxPoint x="340" y="610" as="sourcePoint" />
            <mxPoint x="320" y="520" as="targetPoint" />
          </mxGeometry>
        </mxCell>
        <mxCell id="FhGaNfptb9aEcFmK7woA-8" value="If Hours&amp;gt;2 &amp;amp;&amp;amp; &amp;lt;24" style="text;html=1;strokeColor=none;fillColor=none;align=center;verticalAlign=middle;whiteSpace=wrap;rounded=0;" parent="1" vertex="1">
          <mxGeometry x="215" y="515" width="70" height="30" as="geometry" />
        </mxCell>
        <mxCell id="FhGaNfptb9aEcFmK7woA-10" value="No" style="text;html=1;strokeColor=none;fillColor=none;align=center;verticalAlign=middle;whiteSpace=wrap;rounded=0;" parent="1" vertex="1">
          <mxGeometry x="180" y="440" width="60" height="30" as="geometry" />
        </mxCell>
        <mxCell id="FhGaNfptb9aEcFmK7woA-12" value="" style="endArrow=classic;html=1;rounded=0;exitX=0.5;exitY=1;exitDx=0;exitDy=0;exitPerimeter=0;entryX=0.5;entryY=0;entryDx=0;entryDy=0;" parent="1" source="FhGaNfptb9aEcFmK7woA-9" target="FhGaNfptb9aEcFmK7woA-18" edge="1">
          <mxGeometry width="50" height="50" relative="1" as="geometry">
            <mxPoint x="340" y="670" as="sourcePoint" />
            <mxPoint x="340" y="570" as="targetPoint" />
          </mxGeometry>
        </mxCell>
        <mxCell id="FhGaNfptb9aEcFmK7woA-14" value="" style="rounded=1;whiteSpace=wrap;html=1;absoluteArcSize=1;arcSize=14;strokeWidth=2;" parent="1" vertex="1">
          <mxGeometry x="190" y="685" width="120" height="60" as="geometry" />
        </mxCell>
        <mxCell id="FhGaNfptb9aEcFmK7woA-15" value="&lt;div&gt;ExtraTime = Integer&lt;br&gt;&lt;/div&gt;" style="text;html=1;strokeColor=none;fillColor=none;align=center;verticalAlign=middle;whiteSpace=wrap;rounded=0;" parent="1" vertex="1">
          <mxGeometry x="191.25" y="700" width="117.5" height="30" as="geometry" />
        </mxCell>
        <mxCell id="FhGaNfptb9aEcFmK7woA-16" value="" style="rounded=1;whiteSpace=wrap;html=1;absoluteArcSize=1;arcSize=14;strokeWidth=2;" parent="1" vertex="1">
          <mxGeometry x="190" y="775" width="120" height="60" as="geometry" />
        </mxCell>
        <mxCell id="FhGaNfptb9aEcFmK7woA-17" value="Tax1= 10,000 + (1,000*ExtraTime)" style="text;html=1;strokeColor=none;fillColor=none;align=center;verticalAlign=middle;whiteSpace=wrap;rounded=0;" parent="1" vertex="1">
          <mxGeometry x="185" y="790" width="130" height="30" as="geometry" />
        </mxCell>
        <mxCell id="FhGaNfptb9aEcFmK7woA-19" value="Input ExtraTime" style="text;html=1;strokeColor=none;fillColor=none;align=center;verticalAlign=middle;whiteSpace=wrap;rounded=0;" parent="1" vertex="1">
          <mxGeometry x="200" y="615" width="100" height="30" as="geometry" />
        </mxCell>
        <mxCell id="FhGaNfptb9aEcFmK7woA-20" value="" style="endArrow=classic;html=1;rounded=0;exitX=0.5;exitY=1;exitDx=0;exitDy=0;entryX=0.5;entryY=0;entryDx=0;entryDy=0;" parent="1" source="FhGaNfptb9aEcFmK7woA-18" target="FhGaNfptb9aEcFmK7woA-14" edge="1">
          <mxGeometry width="50" height="50" relative="1" as="geometry">
            <mxPoint x="340" y="725" as="sourcePoint" />
            <mxPoint x="390" y="675" as="targetPoint" />
          </mxGeometry>
        </mxCell>
        <mxCell id="FhGaNfptb9aEcFmK7woA-21" value="" style="endArrow=classic;html=1;rounded=0;exitX=0.5;exitY=1;exitDx=0;exitDy=0;entryX=0.5;entryY=0;entryDx=0;entryDy=0;" parent="1" source="FhGaNfptb9aEcFmK7woA-14" target="FhGaNfptb9aEcFmK7woA-16" edge="1">
          <mxGeometry width="50" height="50" relative="1" as="geometry">
            <mxPoint x="340" y="725" as="sourcePoint" />
            <mxPoint x="390" y="675" as="targetPoint" />
          </mxGeometry>
        </mxCell>
        <mxCell id="FhGaNfptb9aEcFmK7woA-22" value="" style="endArrow=classic;html=1;rounded=0;exitX=0.5;exitY=1;exitDx=0;exitDy=0;entryX=0.5;entryY=0;entryDx=0;entryDy=0;" parent="1" source="FhGaNfptb9aEcFmK7woA-16" target="FhGaNfptb9aEcFmK7woA-23" edge="1">
          <mxGeometry width="50" height="50" relative="1" as="geometry">
            <mxPoint x="340" y="725" as="sourcePoint" />
            <mxPoint x="390" y="675" as="targetPoint" />
          </mxGeometry>
        </mxCell>
        <mxCell id="FhGaNfptb9aEcFmK7woA-23" value="" style="shape=parallelogram;perimeter=parallelogramPerimeter;whiteSpace=wrap;html=1;fixedSize=1;strokeWidth=2;" parent="1" vertex="1">
          <mxGeometry x="190" y="865" width="120" height="50" as="geometry" />
        </mxCell>
        <mxCell id="FhGaNfptb9aEcFmK7woA-24" value="Print Tax1" style="text;html=1;strokeColor=none;fillColor=none;align=center;verticalAlign=middle;whiteSpace=wrap;rounded=0;" parent="1" vertex="1">
          <mxGeometry x="220" y="875" width="60" height="30" as="geometry" />
        </mxCell>
        <mxCell id="FhGaNfptb9aEcFmK7woA-25" value="" style="endArrow=classic;html=1;rounded=0;exitX=1;exitY=0.5;exitDx=0;exitDy=0;exitPerimeter=0;entryX=0.5;entryY=0;entryDx=0;entryDy=0;" parent="1" source="FhGaNfptb9aEcFmK7woA-9" target="FhGaNfptb9aEcFmK7woA-28" edge="1">
          <mxGeometry width="50" height="50" relative="1" as="geometry">
            <mxPoint x="310" y="520" as="sourcePoint" />
            <mxPoint x="380" y="560" as="targetPoint" />
          </mxGeometry>
        </mxCell>
        <mxCell id="FhGaNfptb9aEcFmK7woA-26" value="Yes" style="text;html=1;strokeColor=none;fillColor=none;align=center;verticalAlign=middle;whiteSpace=wrap;rounded=0;" parent="1" vertex="1">
          <mxGeometry x="250" y="575" width="40" height="30" as="geometry" />
        </mxCell>
        <mxCell id="FhGaNfptb9aEcFmK7woA-27" value="No" style="text;html=1;strokeColor=none;fillColor=none;align=center;verticalAlign=middle;whiteSpace=wrap;rounded=0;" parent="1" vertex="1">
          <mxGeometry x="300" y="515" width="60" height="30" as="geometry" />
        </mxCell>
        <mxCell id="FhGaNfptb9aEcFmK7woA-29" value="Tax2 = 10,000 + (1,000*ExtraTime) + 100,000" style="text;html=1;strokeColor=none;fillColor=none;align=center;verticalAlign=middle;whiteSpace=wrap;rounded=0;" parent="1" vertex="1">
          <mxGeometry x="330" y="595" width="120" height="30" as="geometry" />
        </mxCell>
        <mxCell id="FhGaNfptb9aEcFmK7woA-30" value="" style="rounded=1;whiteSpace=wrap;html=1;absoluteArcSize=1;arcSize=14;strokeWidth=2;" parent="1" vertex="1">
          <mxGeometry x="330" y="665" width="120" height="60" as="geometry" />
        </mxCell>
        <mxCell id="FhGaNfptb9aEcFmK7woA-31" value="" style="endArrow=classic;html=1;rounded=0;exitX=0.5;exitY=1;exitDx=0;exitDy=0;entryX=0.5;entryY=0;entryDx=0;entryDy=0;" parent="1" source="FhGaNfptb9aEcFmK7woA-28" target="FhGaNfptb9aEcFmK7woA-30" edge="1">
          <mxGeometry width="50" height="50" relative="1" as="geometry">
            <mxPoint x="340" y="700" as="sourcePoint" />
            <mxPoint x="390" y="650" as="targetPoint" />
          </mxGeometry>
        </mxCell>
        <mxCell id="FhGaNfptb9aEcFmK7woA-32" value="&lt;div&gt;ExtraTime = Integer&lt;/div&gt;&lt;div&gt;Tax2 = Integer&lt;br&gt;&lt;/div&gt;" style="text;html=1;strokeColor=none;fillColor=none;align=center;verticalAlign=middle;whiteSpace=wrap;rounded=0;" parent="1" vertex="1">
          <mxGeometry x="330" y="680" width="120" height="30" as="geometry" />
        </mxCell>
        <mxCell id="FhGaNfptb9aEcFmK7woA-33" value="" style="endArrow=classic;html=1;rounded=0;exitX=0.5;exitY=1;exitDx=0;exitDy=0;entryX=0.5;entryY=0;entryDx=0;entryDy=0;" parent="1" source="FhGaNfptb9aEcFmK7woA-30" target="FhGaNfptb9aEcFmK7woA-35" edge="1">
          <mxGeometry width="50" height="50" relative="1" as="geometry">
            <mxPoint x="400" y="650" as="sourcePoint" />
            <mxPoint x="500" y="750" as="targetPoint" />
          </mxGeometry>
        </mxCell>
        <mxCell id="FhGaNfptb9aEcFmK7woA-35" value="" style="shape=parallelogram;perimeter=parallelogramPerimeter;whiteSpace=wrap;html=1;fixedSize=1;strokeWidth=2;" parent="1" vertex="1">
          <mxGeometry x="330" y="760" width="120" height="50" as="geometry" />
        </mxCell>
        <mxCell id="FhGaNfptb9aEcFmK7woA-36" value="Print Tax2" style="text;html=1;strokeColor=none;fillColor=none;align=center;verticalAlign=middle;whiteSpace=wrap;rounded=0;" parent="1" vertex="1">
          <mxGeometry x="360" y="770" width="60" height="30" as="geometry" />
        </mxCell>
        <mxCell id="FhGaNfptb9aEcFmK7woA-37" value="" style="ellipse;whiteSpace=wrap;html=1;aspect=fixed;strokeWidth=2;" parent="1" vertex="1">
          <mxGeometry x="235" y="950" width="30" height="30" as="geometry" />
        </mxCell>
        <mxCell id="FhGaNfptb9aEcFmK7woA-38" value="" style="endArrow=classic;html=1;rounded=0;exitX=0.5;exitY=1;exitDx=0;exitDy=0;entryX=0;entryY=0.5;entryDx=0;entryDy=0;" parent="1" source="_fdn4rMZbtFpZdUaw8Mi-15" target="FhGaNfptb9aEcFmK7woA-37" edge="1">
          <mxGeometry width="50" height="50" relative="1" as="geometry">
            <mxPoint x="340" y="820" as="sourcePoint" />
            <mxPoint x="390" y="770" as="targetPoint" />
            <Array as="points">
              <mxPoint x="100" y="965" />
            </Array>
          </mxGeometry>
        </mxCell>
        <mxCell id="FhGaNfptb9aEcFmK7woA-39" value="" style="endArrow=classic;html=1;rounded=0;exitX=0.5;exitY=1;exitDx=0;exitDy=0;entryX=0.5;entryY=0;entryDx=0;entryDy=0;" parent="1" source="FhGaNfptb9aEcFmK7woA-23" target="FhGaNfptb9aEcFmK7woA-37" edge="1">
          <mxGeometry width="50" height="50" relative="1" as="geometry">
            <mxPoint x="110" y="770" as="sourcePoint" />
            <mxPoint x="270" y="940" as="targetPoint" />
          </mxGeometry>
        </mxCell>
        <mxCell id="FhGaNfptb9aEcFmK7woA-40" value="" style="endArrow=classic;html=1;rounded=0;exitX=0.5;exitY=1;exitDx=0;exitDy=0;entryX=1;entryY=0.5;entryDx=0;entryDy=0;" parent="1" source="FhGaNfptb9aEcFmK7woA-35" target="FhGaNfptb9aEcFmK7woA-37" edge="1">
          <mxGeometry width="50" height="50" relative="1" as="geometry">
            <mxPoint x="260" y="925" as="sourcePoint" />
            <mxPoint x="260" y="960" as="targetPoint" />
            <Array as="points">
              <mxPoint x="390" y="965" />
            </Array>
          </mxGeometry>
        </mxCell>
        <mxCell id="FhGaNfptb9aEcFmK7woA-41" value="" style="strokeWidth=2;html=1;shape=mxgraph.flowchart.terminator;whiteSpace=wrap;" parent="1" vertex="1">
          <mxGeometry x="200" y="1010" width="100" height="50" as="geometry" />
        </mxCell>
        <mxCell id="FhGaNfptb9aEcFmK7woA-42" value="" style="endArrow=classic;html=1;rounded=0;strokeWidth=1;exitX=0.5;exitY=1;exitDx=0;exitDy=0;entryX=0.5;entryY=0;entryDx=0;entryDy=0;entryPerimeter=0;" parent="1" source="FhGaNfptb9aEcFmK7woA-37" target="FhGaNfptb9aEcFmK7woA-41" edge="1">
          <mxGeometry width="50" height="50" relative="1" as="geometry">
            <mxPoint x="340" y="1030" as="sourcePoint" />
            <mxPoint x="390" y="980" as="targetPoint" />
          </mxGeometry>
        </mxCell>
        <mxCell id="FhGaNfptb9aEcFmK7woA-43" value="Paid" style="text;html=1;strokeColor=none;fillColor=none;align=center;verticalAlign=middle;whiteSpace=wrap;rounded=0;" parent="1" vertex="1">
          <mxGeometry x="220" y="1020" width="60" height="30" as="geometry" />
        </mxCell>
        <mxCell id="FhGaNfptb9aEcFmK7woA-44" value="" style="endArrow=classic;html=1;rounded=0;strokeWidth=1;exitX=0.5;exitY=1;exitDx=0;exitDy=0;exitPerimeter=0;entryX=0.5;entryY=0;entryDx=0;entryDy=0;" parent="1" source="_fdn4rMZbtFpZdUaw8Mi-1" target="_fdn4rMZbtFpZdUaw8Mi-7" edge="1">
          <mxGeometry width="50" height="50" relative="1" as="geometry">
            <mxPoint x="340" y="400" as="sourcePoint" />
            <mxPoint x="390" y="350" as="targetPoint" />
          </mxGeometry>
        </mxCell>
        <mxCell id="FhGaNfptb9aEcFmK7woA-45" value="&lt;h1&gt;Algorithm of Parking Bill&lt;br&gt;&lt;/h1&gt;&lt;p&gt;A parking lot charges its customers by the time is spent. There are three main categories, the longer time spent the higher its bill.&lt;/p&gt;&lt;p&gt;By: Andika Fadila Pratama D4JTD 1A/04&lt;/p&gt;&lt;p&gt;Polinema-Computer Programming&lt;/p&gt;&lt;p&gt;2022/03/11&lt;br&gt;&lt;/p&gt;" style="text;html=1;strokeColor=none;fillColor=#A9C4EB;spacing=5;spacingTop=-20;whiteSpace=wrap;overflow=hidden;rounded=0;" parent="1" vertex="1">
          <mxGeometry x="40" y="40" width="320" height="180" as="geometry" />
        </mxCell>
      </root>
    </mxGraphModel>
  </diagram>
</mxfile>
